# xmcd
#
# Track frame offsets:
#  150
#  14547
#  26917
#  40185
#  52310
#  63745
#  75212
#  85520
#  98382
#  111652
#  125542
#  139555
#  152260
#  166465
#
# Disc length: 2421 seconds
#
# Revision: 0
# Processed by: cddbd v1.5.1PL2 Copyright (c) Steve Scherf et al.
# Submitted via: Collectorz.com_Music_Collector 6.9
#
DISCID=ae09730e
DTITLE=Gore Carter - Unsung Hero
DYEAR=1992
DGENRE=Blues
TTITLE0=She's Just Old Fashioned
TTITLE1=Rock Awhile
TTITLE2=Hoy Hoy
TTITLE3=Back Home Blues
TTITLE4=Sweet Old Woman Blues
TTITLE5=Lonely World
TTITLE6=I'll Send You
TTITLE7=How Can You Love Me
TTITLE8=My Love Is Coming Down
TTITLE9=Come On Let's Boogie
TTITLE10=What A Friend Will Do
TTITLE11=I Just Thought Of You
TTITLE12=Is It True
TTITLE13=Working With My Baby
EXTD=
EXTT0=
EXTT1=
EXTT2=
EXTT3=
EXTT4=
EXTT5=
EXTT6=
EXTT7=
EXTT8=
EXTT9=
EXTT10=
EXTT11=
EXTT12=
EXTT13=
PLAYORDER=
